
<svg xmlns="http://www.w3.org/2000/svg" viewBox="0 0 96 96" width="96" height="96" fill="none">
  <defs>
    <linearGradient id="mt-grad" x1="0" y1="0" x2="1" y2="1">
      <stop offset="0%" stop-color="#1a3c8f"></stop>
      <stop offset="100%" stop-color="#3460c8"></stop>
    </linearGradient>
  </defs>
  
  <circle cx="48" cy="48" r="42" fill="url(#mt-grad)"></circle>
  
  <circle cx="48" cy="48" r="39" fill="none" stroke="#ffffff" stroke-opacity="0.26" stroke-width="1.8" stroke-dasharray="3 6" stroke-linecap="round"></circle>
  
  <g fill="#ffffff">
    
    <rect x="39.5" y="14" width="3" height="68" rx="1"></rect>
    
    <path fill-rule="evenodd" d="&#xA;      M 28 22&#xA;      L 45 22&#xA;      C 54.5 22 54.5 46 45 46&#xA;      C 55.5 46 55.5 74 45 74&#xA;      L 28 74&#xA;      Z&#xA;      M 34.5 28.5&#xA;      L 43.5 28.5&#xA;      C 47.5 28.5 47.5 39.5 43.5 39.5&#xA;      L 34.5 39.5&#xA;      Z&#xA;      M 34.5 52.5&#xA;      L 43.5 52.5&#xA;      C 48.7 52.5 48.7 67.5 43.5 67.5&#xA;      L 34.5 67.5&#xA;      Z&#xA;    "></path>
  </g>
  
  <circle cx="78.7" cy="23.7" r="7.2" fill="#9dffe0"></circle>
</svg>